# xmcd
#
# Track frame offsets:
#	150
#	15434
#	31817
#	41439
#	54415
#	75779
#	93071
#	105224
#	111715
#	121995
#	131133
#	137297
#	149002
#	166288
#	180906
#	197325
#	213520
#	225231
#
# Disc length: 3232 seconds
#
# Revision: 1
# Processed by: cddbd v1.5.2PL0 Copyright (c) Steve Scherf et al.
# Submitted via: audiograbber 1.83.01
#
DISCID=d50c9e12
DTITLE=Johnny Cash - The Great Lost Performance
DYEAR=2007
DGENRE=Country
TTITLE0=Ring Of Fire
TTITLE1=Life's Railway To Heaven
TTITLE2=A Wonderful Time Up There
TTITLE3=Folsom Prison Blues
TTITLE4=Sunday Morning Coming Down
TTITLE5=What Is Man
TTITLE6=Forty Shades Of Green
TTITLE7=Come Along And Ride This Train
TTITLE8=Five Feet High And Rising
TTITLE9=Pickin' Time
TTITLE10=A Beautiful Life
TTITLE11=Hey Porter
TTITLE12=Ragged Old Flag
TTITLE13=Tennessee Flat Top Box
TTITLE14=Ghost Riders In The Sky
TTITLE15=Jackson
TTITLE16=The Wreck Of The Old '97
TTITLE17=I Walk The Line
EXTD=
EXTT0=
EXTT1=
EXTT2=
EXTT3=
EXTT4=
EXTT5=
EXTT6=
EXTT7=
EXTT8=
EXTT9=
EXTT10=
EXTT11=
EXTT12=
EXTT13=
EXTT14=
EXTT15=
EXTT16=
EXTT17=
PLAYORDER=
